<?xml version="1.0" encoding="utf-8"?>
<!-- Generator: Adobe Illustrator 25.0.0, SVG Export Plug-In . SVG Version: 6.00 Build 0)  -->
<svg version="1.1" id="Layer_1" xmlns="http://www.w3.org/2000/svg" xmlns:xlink="http://www.w3.org/1999/xlink" x="0px" y="0px"
	 viewBox="0 0 1024 1024" enable-background="new 0 0 1024 1024" xml:space="preserve">
<rect display="none" fill="#100040" width="1024" height="1024"/>
<path fill="#FFFFFF" d="M359.2,472.6H113.4C50.8,472.6,0,421.8,0,359.2V113.4C0,50.8,50.8,0,113.4,0h245.8
	c62.6,0,113.4,50.8,113.4,113.4v245.8C472.6,421.8,421.8,472.6,359.2,472.6z"/>
<path fill="#FFFFFF" d="M910.6,472.6H664.8c-62.6,0-113.4-50.8-113.4-113.4V113.4C551.4,50.8,602.2,0,664.8,0h245.8
	C973.2,0,1024,50.8,1024,113.4v245.8C1024,421.8,973.2,472.6,910.6,472.6z"/>
<path fill="#FFFFFF" d="M359.2,1024H113.4C50.8,1024,0,973.2,0,910.6V664.8c0-62.6,50.8-113.4,113.4-113.4h245.8
	c62.6,0,113.4,50.8,113.4,113.4v245.8C472.6,973.2,421.8,1024,359.2,1024z"/>
<path fill="#FFFFFF" d="M551.4,618.9c0-37.3,30.2-67.5,67.5-67.5h282.9c17.9,0,35.1,7.1,47.7,19.8l54.7,54.7
	c12.7,12.7,19.8,29.8,19.8,47.7v282.8c0,37.3-30.2,67.5-67.5,67.5H618.9c-37.3,0-67.5-30.2-67.5-67.5V618.9z M618.9,585.1
	c-18.6,0-33.8,15.1-33.8,33.8v337.6c0,18.6,15.1,33.8,33.8,33.8V838.3c0-28,22.7-50.6,50.6-50.6h236.3c28,0,50.6,22.7,50.6,50.6
	v151.9c18.6,0,33.8-15.1,33.8-33.8V673.6c0-9-3.6-17.5-9.9-23.9L925.6,595c-6.3-6.3-14.9-9.9-23.9-9.9H889v84.4
	c0,28-22.7,50.6-50.6,50.6h-135c-28,0-50.6-22.7-50.6-50.6v-84.4L618.9,585.1z M686.4,585.1v84.4c0,9.3,7.6,16.9,16.9,16.9h135
	c9.3,0,16.9-7.6,16.9-16.9v-84.4H686.4z M922.7,990.2V838.3c0-9.3-7.6-16.9-16.9-16.9H669.5c-9.3,0-16.9,7.6-16.9,16.9v151.9H922.7z
	"/>
</svg>
